<svg id="svg" version="1.1" xmlns="http://www.w3.org/2000/svg" xmlns:xlink="http://www.w3.org/1999/xlink" width="400" height="400" viewBox="0, 0, 400,400"><g id="svgg"><path id="path0" d="M195.800 27.403 C 194.480 27.712,192.196 27.973,190.724 27.983 C 189.210 27.992,187.928 28.193,187.772 28.445 C 187.621 28.689,186.576 29.319,185.449 29.844 C 179.254 32.732,172.395 38.328,169.813 42.601 C 169.366 43.341,168.442 44.737,167.761 45.703 C 167.080 46.669,166.391 47.980,166.232 48.617 C 166.072 49.253,165.504 50.697,164.971 51.826 C 164.391 53.050,164.000 54.602,164.000 55.676 C 164.000 56.665,163.659 58.467,163.242 59.679 C 162.391 62.151,162.446 64.911,163.409 68.155 C 163.734 69.249,164.006 71.148,164.012 72.373 C 164.022 74.025,164.279 75.013,165.010 76.200 C 165.552 77.080,165.997 78.181,165.998 78.646 C 165.999 79.111,166.360 79.950,166.800 80.509 C 167.240 81.069,167.600 81.698,167.600 81.908 C 167.600 82.118,168.140 82.969,168.800 83.800 C 169.460 84.631,170.000 85.654,170.000 86.074 C 170.000 86.797,173.407 90.400,174.091 90.400 C 174.378 90.400,176.863 92.285,180.186 95.023 C 180.838 95.560,181.572 96.000,181.816 96.000 C 183.526 96.000,184.566 99.237,184.451 104.200 C 184.436 104.860,184.373 107.868,184.312 110.885 C 184.218 115.496,184.088 116.482,183.493 117.077 C 182.824 117.748,179.661 117.785,123.208 117.792 C 67.935 117.799,63.580 117.849,62.956 118.472 C 62.365 119.064,62.271 120.461,62.174 130.072 C 62.025 145.018,61.957 212.904,62.092 212.972 C 62.151 213.002,62.497 213.253,62.860 213.529 C 63.223 213.805,64.601 214.206,65.922 214.418 C 67.243 214.631,69.070 215.139,69.981 215.547 C 71.087 216.042,72.726 216.314,74.918 216.365 C 78.536 216.449,80.000 216.702,80.000 217.243 C 80.000 217.440,80.135 217.571,80.300 217.536 C 80.465 217.502,80.870 217.571,81.200 217.690 C 81.530 217.810,83.616 218.089,85.837 218.311 C 88.125 218.539,90.452 219.013,91.210 219.405 C 92.133 219.882,94.061 220.186,97.451 220.388 C 100.710 220.582,102.667 220.882,103.279 221.281 C 103.852 221.655,105.635 221.965,108.000 222.103 C 110.404 222.243,112.546 222.619,113.830 223.128 C 115.092 223.629,117.631 224.083,120.543 224.328 C 123.119 224.546,125.485 224.939,125.802 225.202 C 126.119 225.465,128.233 225.829,130.500 226.010 C 134.748 226.350,136.705 226.690,137.400 227.209 C 138.017 227.670,139.891 227.967,143.505 228.176 C 145.547 228.294,147.490 228.668,148.587 229.153 C 149.713 229.651,151.726 230.029,154.082 230.184 C 156.690 230.356,158.278 230.677,159.399 231.260 C 160.465 231.814,161.998 232.144,163.999 232.251 C 169.101 232.524,170.864 232.755,171.432 233.226 C 171.732 233.476,173.858 233.831,176.155 234.014 C 179.059 234.247,180.824 234.600,181.950 235.174 C 183.236 235.830,184.331 236.002,187.284 236.009 C 190.167 236.016,191.403 236.202,192.800 236.839 C 194.042 237.406,196.017 237.768,199.173 238.009 C 202.724 238.280,203.986 238.535,204.818 239.150 C 205.685 239.791,206.728 239.978,210.286 240.131 C 213.012 240.247,215.124 240.543,215.842 240.907 C 216.479 241.230,218.522 241.613,220.382 241.758 C 223.787 242.022,228.280 242.903,229.527 243.550 C 229.897 243.742,231.863 244.007,233.895 244.139 C 236.310 244.295,238.111 244.640,239.095 245.134 C 240.097 245.637,241.870 245.969,244.400 246.127 C 246.962 246.286,249.112 246.692,251.000 247.373 C 253.014 248.100,254.620 248.385,256.722 248.392 C 258.724 248.397,260.172 248.640,261.322 249.161 C 262.459 249.676,264.315 249.992,267.077 250.139 C 269.601 250.273,271.615 250.594,272.364 250.982 C 273.091 251.357,275.565 251.769,278.558 252.012 C 281.300 252.235,284.140 252.660,284.871 252.958 C 285.602 253.255,287.736 253.607,289.614 253.740 C 293.029 253.981,295.308 254.528,296.360 255.358 C 296.668 255.601,298.715 255.896,300.908 256.012 C 305.270 256.245,307.179 257.384,306.585 259.400 C 306.455 259.840,306.243 261.457,306.114 262.992 C 305.963 264.783,305.542 266.419,304.940 267.552 C 304.423 268.524,304.000 269.819,304.000 270.431 C 304.000 271.043,303.715 271.828,303.366 272.177 C 303.018 272.525,302.561 273.430,302.352 274.188 C 302.143 274.946,301.260 276.699,300.390 278.083 C 299.520 279.467,298.440 281.230,297.990 282.000 C 297.540 282.770,296.628 284.120,295.965 285.000 C 295.301 285.880,294.085 287.590,293.263 288.800 C 291.492 291.407,290.548 292.523,287.564 295.540 C 282.990 300.163,274.198 308.000,273.586 308.000 C 273.378 308.000,272.172 308.777,270.904 309.727 C 269.637 310.676,268.029 311.801,267.332 312.227 C 266.634 312.652,264.294 314.170,262.132 315.600 C 256.624 319.242,257.362 318.815,249.600 322.852 C 247.730 323.825,245.750 324.920,245.200 325.286 C 244.650 325.652,242.760 326.526,241.000 327.228 C 239.240 327.929,237.387 328.828,236.881 329.224 C 236.376 329.620,235.386 330.070,234.681 330.222 C 233.977 330.375,232.950 330.810,232.400 331.190 C 231.850 331.570,230.800 331.996,230.068 332.137 C 229.335 332.278,228.275 332.755,227.714 333.196 C 227.152 333.638,226.401 334.001,226.046 334.001 C 225.691 334.002,224.803 334.367,224.074 334.811 C 223.345 335.256,221.872 335.807,220.800 336.037 C 219.729 336.267,218.638 336.713,218.377 337.028 C 217.750 337.783,217.024 337.752,216.349 336.939 C 215.892 336.388,215.795 329.709,215.773 297.239 C 215.758 275.767,215.624 257.840,215.476 257.400 C 215.135 256.389,209.384 254.543,205.554 254.215 C 204.098 254.091,201.626 253.541,200.061 252.994 C 198.236 252.357,196.343 252.000,194.785 252.000 C 193.448 252.000,191.092 251.792,189.549 251.537 C 185.530 250.873,184.847 251.585,184.456 256.841 C 184.243 259.706,184.173 305.474,184.346 329.000 C 184.357 330.540,184.298 332.340,184.216 333.000 C 184.133 333.660,184.050 334.661,184.032 335.224 C 183.968 337.241,183.050 337.935,181.733 336.962 C 181.110 336.502,179.899 335.994,179.042 335.834 C 178.184 335.673,177.090 335.284,176.610 334.970 C 176.129 334.655,174.827 334.127,173.716 333.797 C 172.605 333.467,171.472 332.928,171.199 332.599 C 170.926 332.269,170.391 332.000,170.011 332.000 C 169.630 332.000,168.527 331.580,167.560 331.067 C 166.592 330.553,165.260 330.001,164.600 329.839 C 163.384 329.540,157.887 326.861,150.600 323.016 C 145.072 320.099,144.754 319.918,143.333 318.900 C 142.642 318.405,141.821 318.000,141.508 318.000 C 141.195 318.000,140.517 317.550,140.000 317.000 C 139.483 316.450,138.867 315.997,138.630 315.993 C 138.394 315.989,137.390 315.453,136.400 314.802 C 132.068 311.955,129.422 310.111,127.928 308.900 C 127.046 308.185,126.135 307.600,125.904 307.600 C 125.672 307.600,124.648 306.835,123.628 305.900 C 122.607 304.965,119.983 302.580,117.796 300.600 C 111.253 294.676,103.919 286.332,101.562 282.130 C 101.089 281.289,100.455 280.245,100.152 279.811 C 99.583 278.998,99.482 276.859,99.940 275.333 C 100.083 274.856,101.190 273.691,102.400 272.743 C 103.610 271.795,104.690 270.925,104.800 270.809 C 104.910 270.693,105.720 269.986,106.600 269.237 C 109.530 266.743,114.910 261.813,115.761 260.843 C 116.222 260.316,116.796 259.693,117.036 259.458 C 118.082 258.432,112.551 256.371,107.800 256.016 C 105.380 255.836,102.517 255.381,101.438 255.007 C 100.359 254.632,97.929 254.179,96.038 254.000 C 94.147 253.820,91.790 253.375,90.800 253.010 C 89.810 252.646,87.290 252.249,85.200 252.128 C 83.110 252.008,80.410 251.586,79.200 251.190 C 77.990 250.795,75.920 250.355,74.600 250.214 C 71.225 249.851,68.351 249.177,67.319 248.506 C 66.835 248.191,65.620 247.933,64.619 247.933 C 63.386 247.933,62.800 247.765,62.800 247.409 C 62.800 247.121,62.505 246.772,62.143 246.634 C 61.594 246.423,61.570 246.482,61.992 246.991 C 62.316 247.381,62.365 247.780,62.127 248.100 C 61.923 248.375,61.800 249.410,61.854 250.400 C 61.908 251.390,61.986 253.280,62.027 254.600 C 62.068 255.920,62.367 257.522,62.692 258.161 C 63.028 258.820,63.405 261.165,63.565 263.590 C 63.785 266.917,64.036 268.164,64.706 269.247 C 65.178 270.012,65.685 271.389,65.832 272.309 C 65.979 273.229,66.527 274.826,67.050 275.858 C 67.572 276.891,68.000 278.295,68.000 278.979 C 68.000 279.704,68.316 280.493,68.758 280.871 C 69.175 281.228,69.639 282.248,69.789 283.137 C 69.940 284.026,70.309 284.958,70.609 285.208 C 70.910 285.457,71.443 286.527,71.795 287.584 C 72.146 288.641,72.786 289.825,73.217 290.215 C 73.647 290.605,74.000 291.256,74.000 291.662 C 74.000 292.068,74.178 292.400,74.395 292.400 C 74.612 292.400,75.037 292.992,75.339 293.716 C 75.641 294.440,76.216 295.359,76.616 295.759 C 77.327 296.469,77.592 296.894,79.552 300.466 C 80.076 301.420,80.721 302.327,80.986 302.483 C 81.251 302.638,81.992 303.535,82.634 304.475 C 84.962 307.887,87.288 310.470,93.420 316.454 C 99.669 322.551,106.201 328.400,106.762 328.400 C 106.988 328.400,107.354 328.739,107.576 329.154 C 107.798 329.569,108.569 330.283,109.290 330.740 C 110.010 331.197,111.770 332.389,113.200 333.389 C 114.630 334.389,116.880 335.918,118.200 336.787 C 119.520 337.656,121.715 339.185,123.077 340.184 C 124.440 341.183,125.747 342.000,125.981 342.000 C 126.215 342.000,126.972 342.540,127.663 343.200 C 128.464 343.965,129.336 344.400,130.072 344.400 C 130.728 344.400,131.324 344.659,131.455 345.000 C 131.582 345.330,132.431 345.967,133.343 346.414 C 136.770 348.098,138.190 348.905,138.589 349.397 C 138.815 349.676,139.500 350.020,140.110 350.162 C 140.721 350.304,141.557 350.757,141.969 351.169 C 142.381 351.581,143.319 352.050,144.054 352.212 C 145.622 352.556,149.862 354.693,150.975 355.699 C 151.402 356.085,152.033 356.400,152.379 356.400 C 152.724 356.400,153.852 356.850,154.885 357.400 C 155.918 357.950,157.028 358.400,157.351 358.400 C 157.674 358.400,158.473 358.850,159.127 359.400 C 159.791 359.958,160.823 360.400,161.464 360.400 C 162.095 360.400,163.317 360.778,164.178 361.240 C 165.040 361.701,166.158 362.154,166.663 362.246 C 167.167 362.337,168.422 362.859,169.450 363.406 C 170.478 363.953,171.628 364.400,172.006 364.400 C 172.383 364.400,173.150 364.760,173.709 365.200 C 174.269 365.640,175.166 366.000,175.703 366.000 C 177.099 366.000,179.288 366.804,180.059 367.599 C 180.422 367.973,181.644 368.388,182.774 368.522 C 183.919 368.658,185.291 369.128,185.869 369.583 C 186.559 370.125,187.501 370.400,188.673 370.400 C 190.008 370.400,190.653 370.629,191.319 371.338 C 192.179 372.255,193.147 372.449,199.200 372.922 C 199.750 372.965,200.311 373.152,200.447 373.338 C 200.583 373.523,201.213 373.408,201.847 373.081 C 202.481 372.755,203.810 372.489,204.800 372.491 C 207.676 372.497,207.896 372.441,208.104 371.644 C 208.294 370.918,211.141 370.000,213.200 370.000 C 213.618 370.000,214.117 369.720,214.308 369.379 C 214.533 368.977,215.495 368.672,217.028 368.516 C 218.490 368.367,219.630 368.018,220.000 367.605 C 220.702 366.821,222.900 366.000,224.297 366.000 C 224.834 366.000,225.713 365.655,226.249 365.233 C 226.785 364.811,227.937 364.346,228.810 364.198 C 229.682 364.051,230.499 363.763,230.625 363.559 C 230.933 363.061,233.516 362.000,234.420 362.000 C 234.818 362.000,235.408 361.735,235.732 361.411 C 236.056 361.087,237.054 360.705,237.950 360.562 C 238.846 360.418,240.158 359.873,240.867 359.351 C 241.576 358.828,242.435 358.399,242.778 358.398 C 243.120 358.396,243.850 358.153,244.400 357.856 C 244.950 357.560,246.210 356.875,247.200 356.335 C 249.991 354.810,250.423 354.591,253.200 353.285 C 254.630 352.613,256.188 351.952,256.663 351.816 C 257.138 351.680,257.621 351.323,257.736 351.022 C 257.851 350.722,258.543 350.345,259.273 350.186 C 260.003 350.027,261.109 349.470,261.731 348.948 C 262.353 348.427,263.090 348.000,263.369 348.000 C 263.649 348.000,264.293 347.640,264.800 347.200 C 265.307 346.760,265.951 346.400,266.231 346.400 C 266.510 346.400,267.247 345.976,267.869 345.458 C 268.491 344.939,269.665 344.393,270.477 344.244 C 271.427 344.069,272.042 343.699,272.198 343.207 C 272.332 342.785,272.822 342.320,273.289 342.172 C 273.755 342.024,275.118 341.250,276.317 340.451 C 277.516 339.653,279.060 338.704,279.748 338.343 C 280.437 337.982,281.343 337.307,281.762 336.843 C 282.181 336.379,282.738 336.000,283.000 336.000 C 283.262 336.000,283.802 335.640,284.200 335.200 C 284.598 334.760,285.077 334.400,285.264 334.400 C 285.648 334.400,289.713 331.278,295.163 326.800 C 300.307 322.573,312.652 310.262,314.800 307.216 C 315.790 305.813,317.437 303.750,318.460 302.632 C 319.483 301.514,320.794 299.708,321.372 298.619 C 321.950 297.529,322.727 296.302,323.098 295.892 C 323.895 295.011,325.329 292.687,326.116 291.000 C 326.424 290.340,326.974 289.553,327.338 289.251 C 327.702 288.949,328.001 288.409,328.001 288.051 C 328.002 287.693,328.352 286.828,328.778 286.128 C 329.205 285.429,329.755 284.111,330.000 283.200 C 330.245 282.289,330.795 280.971,331.222 280.272 C 331.648 279.572,331.998 278.677,331.999 278.282 C 331.999 277.887,332.450 276.718,333.000 275.685 C 333.550 274.652,334.000 273.304,334.000 272.690 C 334.000 272.076,334.476 270.634,335.058 269.487 C 335.881 267.864,336.176 266.555,336.385 263.600 C 336.533 261.510,336.912 259.350,337.227 258.800 C 337.689 257.994,337.800 255.523,337.800 246.089 L 337.800 234.377 336.410 233.289 C 335.239 232.372,334.607 232.193,332.404 232.158 C 328.637 232.097,325.211 231.613,323.600 230.915 C 322.830 230.581,320.580 230.159,318.600 229.978 C 316.556 229.791,314.395 229.341,313.600 228.936 C 312.644 228.449,310.806 228.142,307.800 227.967 C 305.380 227.826,302.500 227.414,301.400 227.052 C 300.300 226.691,298.050 226.278,296.400 226.135 C 294.750 225.993,292.410 225.537,291.200 225.121 C 289.990 224.706,287.560 224.263,285.800 224.136 C 284.040 224.008,280.915 223.476,278.856 222.952 C 276.797 222.429,274.149 222.000,272.971 222.000 C 271.792 222.000,269.431 221.553,267.715 221.005 C 265.683 220.356,263.627 220.002,261.800 219.988 C 260.260 219.975,258.280 219.683,257.400 219.339 C 256.520 218.995,254.090 218.552,252.000 218.355 C 249.910 218.157,247.096 217.632,245.746 217.189 C 244.396 216.745,241.786 216.289,239.946 216.176 C 238.106 216.062,235.430 215.634,234.000 215.224 C 232.570 214.815,229.997 214.385,228.283 214.270 C 226.175 214.127,224.722 213.797,223.792 213.248 C 222.738 212.626,221.370 212.375,217.909 212.166 C 215.296 212.009,212.559 211.597,211.400 211.187 C 210.300 210.797,207.826 210.380,205.902 210.259 C 203.584 210.113,201.763 209.751,200.502 209.184 C 199.081 208.544,197.589 208.291,194.600 208.180 C 192.400 208.099,189.700 207.748,188.600 207.400 C 187.500 207.051,185.036 206.609,183.125 206.417 C 180.972 206.200,178.764 205.685,177.325 205.064 C 175.580 204.312,174.052 204.012,171.200 203.864 C 169.110 203.756,166.874 203.465,166.232 203.217 C 165.590 202.970,163.340 202.603,161.232 202.400 C 159.124 202.198,156.410 201.693,155.200 201.278 C 153.990 200.863,151.264 200.412,149.142 200.275 C 147.020 200.139,144.590 199.760,143.742 199.433 C 142.894 199.107,140.259 198.561,137.887 198.220 C 135.514 197.879,132.904 197.313,132.087 196.964 C 131.263 196.611,128.638 196.189,126.200 196.018 C 123.780 195.847,121.170 195.432,120.400 195.095 C 119.630 194.758,117.470 194.369,115.600 194.230 C 113.730 194.092,111.120 193.639,109.800 193.225 C 108.480 192.810,105.644 192.370,103.499 192.246 C 97.946 191.926,92.698 190.553,92.215 189.294 C 91.766 188.126,91.975 148.992,92.436 147.668 C 92.673 146.989,93.179 146.334,93.561 146.212 C 94.132 146.031,154.275 145.857,177.269 145.969 L 183.538 146.000 183.919 147.300 C 184.135 148.037,184.330 157.696,184.370 169.600 C 184.448 193.447,184.111 191.501,188.222 191.855 C 189.750 191.987,192.236 192.428,193.747 192.835 C 195.258 193.242,197.868 193.690,199.547 193.831 C 201.518 193.996,203.375 194.445,204.788 195.097 C 206.956 196.098,211.830 196.256,214.063 195.397 C 215.509 194.842,215.599 193.437,215.700 169.868 C 215.796 147.630,215.830 146.714,216.563 146.177 C 217.208 145.706,224.236 145.638,261.726 145.742 L 306.125 145.865 307.062 146.955 C 307.998 148.042,308.000 148.074,308.000 159.235 C 308.000 171.287,307.806 172.637,305.934 173.632 C 305.420 173.905,303.920 175.048,302.600 176.171 C 301.280 177.295,299.771 178.571,299.248 179.007 C 296.038 181.680,294.685 182.934,292.000 185.728 C 288.298 189.579,288.386 189.185,290.896 190.675 C 292.815 191.814,293.370 191.939,297.200 192.095 C 300.365 192.224,301.881 192.480,303.351 193.133 C 304.670 193.719,306.105 194.000,307.781 194.000 C 309.332 194.000,311.297 194.352,313.030 194.941 C 314.731 195.519,317.267 195.979,319.600 196.134 C 324.292 196.445,325.408 196.656,326.646 197.467 C 327.378 197.947,328.734 198.117,332.102 198.153 L 336.584 198.200 337.192 197.000 C 338.037 195.333,338.121 119.161,337.279 118.319 C 336.857 117.897,325.526 117.818,276.759 117.899 L 216.758 117.997 216.261 116.699 C 214.494 112.086,216.018 96.000,218.221 96.000 C 218.485 96.000,218.937 95.717,219.224 95.371 C 219.511 95.025,220.389 94.404,221.173 93.992 C 221.958 93.580,223.680 92.235,225.000 91.004 C 226.320 89.772,227.985 88.301,228.700 87.735 C 229.415 87.169,230.000 86.470,230.000 86.183 C 230.000 85.896,230.422 85.153,230.938 84.531 C 232.146 83.076,233.829 79.690,234.208 77.954 C 234.371 77.209,234.841 76.171,235.252 75.646 C 235.765 74.992,236.000 74.037,236.000 72.610 C 236.000 71.464,236.268 69.644,236.596 68.564 C 237.272 66.335,237.392 61.756,236.814 60.236 C 236.601 59.677,236.249 57.821,236.030 56.110 C 235.812 54.400,235.266 52.287,234.817 51.415 C 234.367 50.544,233.996 49.554,233.992 49.215 C 233.988 48.877,233.275 47.430,232.409 46.000 C 231.543 44.570,230.551 42.904,230.205 42.298 C 229.860 41.691,228.732 40.431,227.699 39.498 C 226.667 38.564,225.187 37.108,224.411 36.261 C 222.818 34.523,220.464 32.847,217.922 31.639 C 216.975 31.188,215.930 30.664,215.600 30.473 C 210.808 27.700,201.017 26.183,195.800 27.403 M207.646 48.940 C 209.834 50.023,213.016 53.149,214.797 55.965 L 216.167 58.131 216.070 63.965 C 215.940 71.754,214.477 74.485,208.198 78.654 L 205.925 80.163 200.477 80.090 C 195.199 80.018,194.952 79.976,192.525 78.731 C 190.062 77.468,185.600 73.512,185.600 72.592 C 185.600 72.334,185.285 71.510,184.900 70.761 C 183.769 68.562,183.875 58.106,185.044 56.525 C 185.508 55.898,186.012 54.991,186.165 54.510 C 186.465 53.564,190.216 50.000,190.912 50.000 C 191.146 50.000,191.621 49.745,191.969 49.434 C 193.836 47.760,204.578 47.422,207.646 48.940 M333.705 201.887 C 334.314 201.979,335.214 201.977,335.705 201.882 C 336.197 201.787,335.700 201.711,334.600 201.714 C 333.500 201.717,333.097 201.795,333.705 201.887 M198.705 375.083 C 199.202 375.179,199.922 375.175,200.305 375.075 C 200.687 374.975,200.280 374.896,199.400 374.901 C 198.520 374.905,198.207 374.987,198.705 375.083 " stroke="none" fill="#bb965f" fill-rule="evenodd"></path><path id="path1" d="M192.457 22.426 C 191.278 22.635,189.838 23.058,189.257 23.366 C 188.676 23.675,187.179 24.133,185.931 24.385 C 184.683 24.637,183.461 25.086,183.215 25.383 C 182.968 25.679,182.280 26.041,181.684 26.188 C 178.532 26.961,169.318 34.414,166.094 38.798 C 165.382 39.766,164.800 40.730,164.800 40.941 C 164.800 41.152,164.350 41.914,163.800 42.636 C 163.250 43.357,162.800 44.108,162.800 44.305 C 162.800 44.502,162.253 45.488,161.585 46.497 C 160.776 47.719,160.293 49.043,160.138 50.465 C 160.010 51.639,159.671 52.977,159.384 53.437 C 157.580 56.340,157.553 71.407,159.346 74.186 C 159.635 74.634,159.993 75.630,160.141 76.400 C 160.435 77.925,162.795 82.911,163.333 83.144 C 163.517 83.224,164.023 84.120,164.458 85.136 C 164.894 86.153,165.393 87.078,165.567 87.192 C 165.741 87.306,166.135 87.871,166.442 88.447 C 167.930 91.241,172.555 96.010,176.000 98.305 C 180.145 101.066,180.039 100.834,179.912 106.895 L 179.800 112.200 121.161 112.400 C 60.182 112.608,62.035 112.558,60.800 114.040 C 60.690 114.172,60.201 114.490,59.714 114.747 C 59.174 115.031,58.651 115.875,58.375 116.907 C 58.125 117.838,57.624 119.140,57.261 119.800 C 56.515 121.155,56.488 150.561,57.220 164.200 C 57.761 174.285,57.700 196.870,57.123 199.660 C 56.673 201.838,57.033 205.746,57.891 208.000 C 58.016 208.330,58.076 209.031,58.023 209.557 C 57.671 213.085,62.211 218.772,64.636 217.841 C 64.946 217.722,65.200 217.760,65.200 217.924 C 65.200 218.575,70.326 219.705,73.492 219.751 C 75.311 219.778,76.799 219.910,76.799 220.045 C 76.801 220.572,81.522 221.758,83.700 221.779 C 84.964 221.790,85.999 221.891,86.000 222.002 C 86.001 222.801,93.577 224.169,96.798 223.953 C 97.569 223.901,98.740 224.141,99.400 224.486 C 100.769 225.201,106.121 226.150,107.607 225.940 C 108.153 225.863,108.889 226.089,109.243 226.443 C 109.904 227.104,114.733 228.000,117.636 228.000 C 118.518 228.000,119.741 228.259,120.354 228.576 C 120.967 228.893,123.073 229.352,125.034 229.596 C 126.996 229.839,129.320 230.293,130.200 230.604 C 132.007 231.242,137.604 232.000,140.509 232.000 C 141.571 232.000,142.926 232.250,143.520 232.556 C 144.871 233.250,151.702 234.160,153.249 233.850 C 153.882 233.724,154.400 233.756,154.400 233.922 C 154.400 234.545,157.134 235.241,161.200 235.652 C 163.510 235.886,166.002 236.335,166.737 236.650 C 167.472 236.964,169.452 237.414,171.137 237.649 C 172.822 237.884,174.710 238.348,175.334 238.680 C 175.957 239.013,178.567 239.502,181.134 239.767 C 183.700 240.033,186.165 240.449,186.612 240.692 C 187.637 241.250,195.151 242.140,197.007 241.923 C 197.773 241.834,198.400 241.865,198.400 241.993 C 198.400 242.529,201.264 243.245,205.000 243.642 C 207.200 243.876,209.818 244.401,210.818 244.810 C 211.818 245.218,214.068 245.677,215.818 245.830 C 217.568 245.983,219.457 246.339,220.017 246.621 C 221.293 247.266,226.473 248.000,229.740 248.000 C 231.187 248.000,232.551 248.228,233.011 248.547 C 233.445 248.847,235.690 249.312,238.000 249.578 C 240.310 249.845,243.280 250.428,244.600 250.874 C 246.293 251.446,248.389 251.732,251.719 251.845 C 254.951 251.956,256.720 252.191,257.330 252.591 C 257.821 252.912,260.197 253.435,262.611 253.752 C 265.025 254.069,267.739 254.605,268.642 254.942 C 269.545 255.280,271.705 255.668,273.442 255.805 C 275.179 255.941,277.349 256.320,278.264 256.646 C 279.179 256.972,281.879 257.482,284.264 257.780 C 286.649 258.078,289.320 258.586,290.200 258.911 C 291.080 259.235,293.598 259.627,295.797 259.781 C 300.236 260.094,300.800 260.355,300.800 262.103 C 300.800 264.121,299.867 268.568,299.329 269.118 C 299.050 269.403,298.608 270.348,298.347 271.218 C 298.087 272.088,297.746 272.800,297.591 272.800 C 297.436 272.800,296.986 273.655,296.591 274.700 C 296.196 275.745,295.746 276.690,295.590 276.800 C 295.435 276.910,294.907 277.790,294.417 278.756 C 293.927 279.722,293.361 280.712,293.160 280.956 C 292.958 281.200,292.032 282.390,291.102 283.600 C 290.172 284.810,289.183 286.038,288.905 286.329 C 288.627 286.619,288.400 287.019,288.400 287.216 C 288.400 287.507,285.920 290.318,284.004 292.200 C 281.309 294.846,279.432 296.516,277.600 297.895 C 276.390 298.806,274.742 300.156,273.937 300.895 C 272.120 302.565,269.499 304.400,268.929 304.400 C 268.694 304.400,267.338 305.345,265.916 306.500 C 264.493 307.655,262.560 309.050,261.619 309.600 C 260.678 310.150,259.596 310.888,259.214 311.240 C 258.832 311.592,257.940 312.082,257.230 312.330 C 256.052 312.740,255.113 313.387,252.466 315.614 C 251.952 316.046,251.212 316.400,250.820 316.400 C 250.428 316.400,249.679 316.727,249.154 317.127 C 248.629 317.527,247.570 318.095,246.800 318.389 C 246.030 318.683,245.220 319.134,245.000 319.392 C 244.780 319.649,243.982 320.074,243.226 320.335 C 242.470 320.596,241.570 321.055,241.226 321.354 C 240.882 321.654,239.939 322.111,239.132 322.370 C 238.325 322.629,237.456 323.092,237.201 323.399 C 236.947 323.705,235.852 324.250,234.769 324.610 C 233.686 324.970,232.800 325.386,232.800 325.535 C 232.800 325.684,232.035 326.043,231.100 326.334 C 230.165 326.625,229.130 327.096,228.800 327.381 C 228.470 327.666,227.480 328.126,226.600 328.404 C 225.720 328.681,224.370 329.218,223.600 329.597 C 222.830 329.976,221.705 330.405,221.100 330.551 L 220.000 330.815 220.000 294.185 C 220.000 268.492,219.866 257.023,219.552 255.777 C 218.696 252.376,215.223 250.000,211.109 250.000 C 210.374 250.000,208.762 249.645,207.527 249.211 C 206.260 248.765,203.567 248.306,201.341 248.156 C 199.174 248.009,196.896 247.635,196.280 247.324 C 192.493 245.412,184.758 245.717,182.372 247.873 C 179.932 250.077,180.005 248.738,180.002 291.743 C 180.000 325.416,179.917 331.254,179.442 331.071 C 179.135 330.953,178.100 330.629,177.142 330.351 C 176.184 330.073,175.040 329.630,174.600 329.367 C 174.160 329.104,173.080 328.664,172.200 328.389 C 171.320 328.114,170.122 327.554,169.538 327.144 C 168.954 326.735,168.307 326.400,168.100 326.400 C 167.893 326.400,167.407 326.050,167.021 325.623 C 166.634 325.195,165.780 324.727,165.125 324.583 C 163.842 324.302,159.784 322.272,158.800 321.420 C 158.470 321.135,157.528 320.685,156.706 320.421 C 155.884 320.158,155.099 319.760,154.962 319.538 C 154.824 319.316,153.967 318.781,153.056 318.350 C 152.145 317.919,150.680 317.130,149.800 316.598 C 148.920 316.065,147.558 315.276,146.773 314.844 C 145.989 314.412,145.121 313.787,144.846 313.455 C 144.570 313.123,143.831 312.739,143.204 312.601 C 142.577 312.463,141.616 311.956,141.070 311.475 C 139.143 309.778,138.185 309.130,136.700 308.525 C 135.875 308.188,135.200 307.770,135.200 307.596 C 135.200 307.279,133.263 305.947,131.101 304.779 C 127.347 302.749,111.717 286.792,108.333 281.534 C 107.436 280.140,106.544 278.940,106.351 278.867 C 105.366 278.492,105.897 277.714,110.317 273.059 C 111.577 271.732,117.562 267.200,118.056 267.200 C 118.240 267.200,119.067 266.461,119.895 265.559 C 120.723 264.656,121.819 263.481,122.330 262.947 C 123.405 261.825,124.189 257.189,123.201 257.800 C 122.839 258.023,122.772 257.968,122.985 257.624 C 123.482 256.820,122.349 255.190,120.713 254.356 C 119.881 253.931,119.200 253.429,119.200 253.239 C 119.200 252.725,115.929 252.000,113.609 252.000 C 112.423 252.000,111.167 251.735,110.604 251.366 C 110.026 250.987,107.980 250.570,105.518 250.328 C 103.253 250.106,100.816 249.675,100.103 249.370 C 99.389 249.065,96.329 248.615,93.303 248.371 C 90.276 248.126,87.186 247.661,86.435 247.338 C 85.684 247.015,83.614 246.570,81.835 246.348 C 80.056 246.127,78.060 245.757,77.400 245.527 C 72.680 243.878,62.800 244.106,62.800 245.863 C 62.800 246.184,62.620 246.336,62.400 246.200 C 62.180 246.064,62.000 246.143,62.000 246.376 C 62.000 246.609,62.180 246.800,62.400 246.800 C 62.620 246.800,62.800 247.055,62.800 247.367 C 62.800 247.772,63.316 247.933,64.619 247.933 C 65.620 247.933,66.835 248.191,67.319 248.506 C 68.351 249.177,71.225 249.851,74.600 250.214 C 75.920 250.355,77.990 250.795,79.200 251.190 C 80.410 251.586,83.110 252.008,85.200 252.128 C 87.290 252.249,89.810 252.646,90.800 253.010 C 91.790 253.375,94.147 253.820,96.038 254.000 C 97.929 254.179,100.359 254.632,101.438 255.007 C 102.517 255.381,105.380 255.836,107.800 256.016 C 112.551 256.371,118.082 258.432,117.036 259.458 C 116.796 259.693,116.222 260.316,115.761 260.843 C 114.910 261.813,109.530 266.743,106.600 269.237 C 105.720 269.986,104.910 270.693,104.800 270.809 C 104.690 270.925,103.610 271.795,102.400 272.743 C 101.190 273.691,100.083 274.856,99.940 275.333 C 99.482 276.859,99.583 278.998,100.152 279.811 C 100.455 280.245,101.089 281.289,101.562 282.130 C 103.919 286.332,111.253 294.676,117.796 300.600 C 119.983 302.580,122.607 304.965,123.628 305.900 C 124.648 306.835,125.672 307.600,125.904 307.600 C 126.135 307.600,127.046 308.185,127.928 308.900 C 129.422 310.111,132.068 311.955,136.400 314.802 C 137.390 315.453,138.394 315.989,138.630 315.993 C 138.867 315.997,139.483 316.450,140.000 317.000 C 140.517 317.550,141.195 318.000,141.508 318.000 C 141.821 318.000,142.642 318.405,143.333 318.900 C 144.754 319.918,145.072 320.099,150.600 323.016 C 157.887 326.861,163.384 329.540,164.600 329.839 C 165.260 330.001,166.592 330.553,167.560 331.067 C 168.527 331.580,169.630 332.000,170.011 332.000 C 170.391 332.000,170.926 332.269,171.199 332.599 C 171.472 332.928,172.605 333.467,173.716 333.797 C 174.827 334.127,176.129 334.655,176.610 334.970 C 177.090 335.284,178.184 335.673,179.042 335.834 C 179.899 335.994,181.110 336.502,181.733 336.962 C 183.050 337.935,183.968 337.241,184.032 335.224 C 184.050 334.661,184.133 333.660,184.216 333.000 C 184.298 332.340,184.357 330.540,184.346 329.000 C 184.173 305.474,184.243 259.706,184.456 256.841 C 184.847 251.585,185.530 250.873,189.549 251.537 C 191.092 251.792,193.448 252.000,194.785 252.000 C 196.343 252.000,198.236 252.357,200.061 252.994 C 201.626 253.541,204.098 254.091,205.554 254.215 C 209.384 254.543,215.135 256.389,215.476 257.400 C 215.624 257.840,215.758 275.767,215.773 297.239 C 215.795 329.709,215.892 336.388,216.349 336.939 C 217.024 337.752,217.750 337.783,218.377 337.028 C 218.638 336.713,219.729 336.267,220.800 336.037 C 221.872 335.807,223.345 335.256,224.074 334.811 C 224.803 334.367,225.691 334.002,226.046 334.001 C 226.401 334.001,227.152 333.638,227.714 333.196 C 228.275 332.755,229.335 332.278,230.068 332.137 C 230.800 331.996,231.850 331.570,232.400 331.190 C 232.950 330.810,233.977 330.375,234.681 330.222 C 235.386 330.070,236.376 329.620,236.881 329.224 C 237.387 328.828,239.240 327.929,241.000 327.228 C 242.760 326.526,244.650 325.652,245.200 325.286 C 245.750 324.920,247.730 323.825,249.600 322.852 C 257.362 318.815,256.624 319.242,262.132 315.600 C 264.294 314.170,266.634 312.652,267.332 312.227 C 268.029 311.801,269.637 310.676,270.904 309.727 C 272.172 308.777,273.378 308.000,273.586 308.000 C 274.198 308.000,282.990 300.163,287.564 295.540 C 290.548 292.523,291.492 291.407,293.263 288.800 C 294.085 287.590,295.301 285.880,295.965 285.000 C 296.628 284.120,297.540 282.770,297.990 282.000 C 298.440 281.230,299.520 279.467,300.390 278.083 C 301.260 276.699,302.143 274.946,302.352 274.188 C 302.561 273.430,303.018 272.525,303.366 272.177 C 303.715 271.828,304.000 271.043,304.000 270.431 C 304.000 269.819,304.423 268.524,304.940 267.552 C 305.542 266.419,305.963 264.783,306.114 262.992 C 306.243 261.457,306.455 259.840,306.585 259.400 C 307.179 257.384,305.270 256.245,300.908 256.012 C 298.715 255.896,296.668 255.601,296.360 255.358 C 295.308 254.528,293.029 253.981,289.614 253.740 C 287.736 253.607,285.602 253.255,284.871 252.958 C 284.140 252.660,281.300 252.235,278.558 252.012 C 275.565 251.769,273.091 251.357,272.364 250.982 C 271.615 250.594,269.601 250.273,267.077 250.139 C 264.315 249.992,262.459 249.676,261.322 249.161 C 260.172 248.640,258.724 248.397,256.722 248.392 C 254.620 248.385,253.014 248.100,251.000 247.373 C 249.112 246.692,246.962 246.286,244.400 246.127 C 241.870 245.969,240.097 245.637,239.095 245.134 C 238.111 244.640,236.310 244.295,233.895 244.139 C 231.863 244.007,229.897 243.742,229.527 243.550 C 228.280 242.903,223.787 242.022,220.382 241.758 C 218.522 241.613,216.479 241.230,215.842 240.907 C 215.124 240.543,213.012 240.247,210.286 240.131 C 206.728 239.978,205.685 239.791,204.818 239.150 C 203.986 238.535,202.724 238.280,199.173 238.009 C 196.017 237.768,194.042 237.406,192.800 236.839 C 191.403 236.202,190.167 236.016,187.284 236.009 C 184.331 236.002,183.236 235.830,181.950 235.174 C 180.824 234.600,179.059 234.247,176.155 234.014 C 173.858 233.831,171.732 233.476,171.432 233.226 C 170.864 232.755,169.101 232.524,163.999 232.251 C 161.998 232.144,160.465 231.814,159.399 231.260 C 158.278 230.677,156.690 230.356,154.082 230.184 C 151.726 230.029,149.713 229.651,148.587 229.153 C 147.490 228.668,145.547 228.294,143.505 228.176 C 139.891 227.967,138.017 227.670,137.400 227.209 C 136.705 226.690,134.748 226.350,130.500 226.010 C 128.233 225.829,126.119 225.465,125.802 225.202 C 125.485 224.939,123.119 224.546,120.543 224.328 C 117.631 224.083,115.092 223.629,113.830 223.128 C 112.546 222.619,110.404 222.243,108.000 222.103 C 105.635 221.965,103.852 221.655,103.279 221.281 C 102.667 220.882,100.710 220.582,97.451 220.388 C 94.061 220.186,92.133 219.882,91.210 219.405 C 90.452 219.013,88.125 218.539,85.837 218.311 C 83.616 218.089,81.530 217.810,81.200 217.690 C 80.870 217.571,80.465 217.502,80.300 217.536 C 80.135 217.571,80.000 217.440,80.000 217.243 C 80.000 216.702,78.536 216.449,74.918 216.365 C 72.726 216.314,71.087 216.042,69.981 215.547 C 69.070 215.139,67.243 214.631,65.922 214.418 C 64.601 214.206,63.223 213.805,62.860 213.529 C 62.497 213.253,62.151 213.002,62.092 212.972 C 61.957 212.904,62.025 145.018,62.174 130.072 C 62.271 120.461,62.365 119.064,62.956 118.472 C 63.580 117.849,67.935 117.799,123.208 117.792 C 179.661 117.785,182.824 117.748,183.493 117.077 C 184.088 116.482,184.218 115.496,184.312 110.885 C 184.373 107.868,184.436 104.860,184.451 104.200 C 184.566 99.237,183.526 96.000,181.816 96.000 C 181.572 96.000,180.838 95.560,180.186 95.023 C 176.863 92.285,174.378 90.400,174.091 90.400 C 173.407 90.400,170.000 86.797,170.000 86.074 C 170.000 85.654,169.460 84.631,168.800 83.800 C 168.140 82.969,167.600 82.118,167.600 81.908 C 167.600 81.698,167.240 81.069,166.800 80.509 C 166.360 79.950,165.999 79.111,165.998 78.646 C 165.997 78.181,165.552 77.080,165.010 76.200 C 164.279 75.013,164.022 74.025,164.012 72.373 C 164.006 71.148,163.734 69.249,163.409 68.155 C 162.446 64.911,162.391 62.151,163.242 59.679 C 163.659 58.467,164.000 56.665,164.000 55.676 C 164.000 54.602,164.391 53.050,164.971 51.826 C 165.504 50.697,166.072 49.253,166.232 48.617 C 166.391 47.980,167.080 46.669,167.761 45.703 C 168.442 44.737,169.366 43.341,169.813 42.601 C 172.395 38.328,179.254 32.732,185.449 29.844 C 186.576 29.319,187.621 28.689,187.772 28.445 C 187.927 28.194,189.154 28.000,190.581 28.000 C 191.974 28.000,194.515 27.710,196.227 27.356 C 199.437 26.693,200.303 26.721,207.285 27.718 C 210.655 28.199,213.031 28.987,215.600 30.473 C 215.930 30.664,216.975 31.188,217.922 31.639 C 220.464 32.847,222.818 34.523,224.411 36.261 C 225.187 37.108,226.667 38.564,227.699 39.498 C 228.732 40.431,229.860 41.691,230.205 42.298 C 230.551 42.904,231.543 44.570,232.409 46.000 C 233.275 47.430,233.988 48.877,233.992 49.215 C 233.996 49.554,234.367 50.544,234.817 51.415 C 235.266 52.287,235.812 54.400,236.030 56.110 C 236.249 57.821,236.601 59.677,236.814 60.236 C 237.392 61.756,237.272 66.335,236.596 68.564 C 236.268 69.644,236.000 71.464,236.000 72.610 C 236.000 74.037,235.765 74.992,235.252 75.646 C 234.841 76.171,234.371 77.209,234.208 77.954 C 233.829 79.690,232.146 83.076,230.938 84.531 C 230.422 85.153,230.000 85.896,230.000 86.183 C 230.000 86.470,229.415 87.169,228.700 87.735 C 227.985 88.301,226.320 89.772,225.000 91.004 C 223.680 92.235,221.958 93.580,221.173 93.992 C 220.389 94.404,219.511 95.025,219.224 95.371 C 218.937 95.717,218.485 96.000,218.221 96.000 C 216.018 96.000,214.494 112.086,216.261 116.699 L 216.758 117.997 276.759 117.899 C 325.526 117.818,336.857 117.897,337.279 118.319 C 338.121 119.161,338.037 195.333,337.192 197.000 L 336.584 198.200 332.102 198.153 C 328.734 198.117,327.378 197.947,326.646 197.467 C 325.408 196.656,324.292 196.445,319.600 196.134 C 317.267 195.979,314.731 195.519,313.030 194.941 C 311.297 194.352,309.332 194.000,307.781 194.000 C 306.105 194.000,304.670 193.719,303.351 193.133 C 301.881 192.480,300.365 192.224,297.200 192.095 C 293.370 191.939,292.815 191.814,290.896 190.675 C 288.386 189.185,288.298 189.579,292.000 185.728 C 294.685 182.934,296.038 181.680,299.248 179.007 C 299.771 178.571,301.280 177.295,302.600 176.171 C 303.920 175.048,305.420 173.905,305.934 173.632 C 307.806 172.637,308.000 171.287,308.000 159.235 C 308.000 148.074,307.998 148.042,307.062 146.955 L 306.125 145.865 261.726 145.742 C 224.236 145.638,217.208 145.706,216.563 146.177 C 215.830 146.714,215.796 147.630,215.700 169.868 C 215.599 193.437,215.509 194.842,214.063 195.397 C 211.830 196.256,206.956 196.098,204.788 195.097 C 203.375 194.445,201.518 193.996,199.547 193.831 C 197.868 193.690,195.258 193.242,193.747 192.835 C 192.236 192.428,189.750 191.987,188.222 191.855 C 184.111 191.501,184.448 193.447,184.370 169.600 C 184.330 157.696,184.135 148.037,183.919 147.300 L 183.538 146.000 177.269 145.969 C 154.275 145.857,94.132 146.031,93.561 146.212 C 93.179 146.334,92.673 146.989,92.436 147.668 C 91.975 148.992,91.766 188.126,92.215 189.294 C 92.698 190.553,97.946 191.926,103.499 192.246 C 105.644 192.370,108.480 192.810,109.800 193.225 C 111.120 193.639,113.730 194.092,115.600 194.230 C 117.470 194.369,119.630 194.758,120.400 195.095 C 121.170 195.432,123.780 195.847,126.200 196.018 C 128.638 196.189,131.263 196.611,132.087 196.964 C 132.904 197.313,135.514 197.879,137.887 198.220 C 140.259 198.561,142.894 199.107,143.742 199.433 C 144.590 199.760,147.020 200.139,149.142 200.275 C 151.264 200.412,153.990 200.863,155.200 201.278 C 156.410 201.693,159.124 202.198,161.232 202.400 C 163.340 202.603,165.590 202.970,166.232 203.217 C 166.874 203.465,169.110 203.756,171.200 203.864 C 174.052 204.012,175.580 204.312,177.325 205.064 C 178.764 205.685,180.972 206.200,183.125 206.417 C 185.036 206.609,187.500 207.051,188.600 207.400 C 189.700 207.748,192.400 208.099,194.600 208.180 C 197.589 208.291,199.081 208.544,200.502 209.184 C 201.763 209.751,203.584 210.113,205.902 210.259 C 207.826 210.380,210.300 210.797,211.400 211.187 C 212.559 211.597,215.296 212.009,217.909 212.166 C 221.370 212.375,222.738 212.626,223.792 213.248 C 224.722 213.797,226.175 214.127,228.283 214.270 C 229.997 214.385,232.570 214.815,234.000 215.224 C 235.430 215.634,238.106 216.062,239.946 216.176 C 241.786 216.289,244.396 216.745,245.746 217.189 C 247.096 217.632,249.910 218.157,252.000 218.355 C 254.090 218.552,256.520 218.995,257.400 219.339 C 258.280 219.683,260.260 219.975,261.800 219.988 C 263.627 220.002,265.683 220.356,267.715 221.005 C 269.431 221.553,271.792 222.000,272.971 222.000 C 274.149 222.000,276.797 222.429,278.856 222.952 C 280.915 223.476,284.040 224.008,285.800 224.136 C 287.560 224.263,289.990 224.706,291.200 225.121 C 292.410 225.537,294.750 225.993,296.400 226.135 C 298.050 226.278,300.300 226.691,301.400 227.052 C 302.500 227.414,305.380 227.826,307.800 227.967 C 310.806 228.142,312.644 228.449,313.600 228.936 C 314.395 229.341,316.556 229.791,318.600 229.978 C 320.580 230.159,322.830 230.581,323.600 230.915 C 325.211 231.613,328.637 232.097,332.404 232.158 C 334.607 232.193,335.239 232.372,336.410 233.289 L 337.800 234.377 337.800 246.089 C 337.800 255.523,337.689 257.994,337.227 258.800 C 336.912 259.350,336.533 261.510,336.385 263.600 C 336.176 266.555,335.881 267.864,335.058 269.487 C 334.476 270.634,334.000 272.076,334.000 272.690 C 334.000 273.304,333.550 274.652,333.000 275.685 C 332.450 276.718,331.999 277.887,331.999 278.282 C 331.998 278.677,331.648 279.572,331.222 280.272 C 330.795 280.971,330.245 282.289,330.000 283.200 C 329.755 284.111,329.205 285.429,328.778 286.128 C 328.352 286.828,328.002 287.693,328.001 288.051 C 328.001 288.409,327.702 288.949,327.338 289.251 C 326.974 289.553,326.424 290.340,326.116 291.000 C 325.329 292.687,323.895 295.011,323.098 295.892 C 322.727 296.302,321.950 297.529,321.372 298.619 C 320.794 299.708,319.483 301.514,318.460 302.632 C 317.437 303.750,315.790 305.813,314.800 307.216 C 312.652 310.262,300.307 322.573,295.163 326.800 C 289.713 331.278,285.648 334.400,285.264 334.400 C 285.077 334.400,284.598 334.760,284.200 335.200 C 283.802 335.640,283.262 336.000,283.000 336.000 C 282.738 336.000,282.181 336.379,281.762 336.843 C 281.343 337.307,280.437 337.982,279.748 338.343 C 279.060 338.704,277.516 339.653,276.317 340.451 C 275.118 341.250,273.755 342.024,273.289 342.172 C 272.822 342.320,272.332 342.785,272.198 343.207 C 272.042 343.699,271.427 344.069,270.477 344.244 C 269.665 344.393,268.491 344.939,267.869 345.458 C 267.247 345.976,266.510 346.400,266.231 346.400 C 265.951 346.400,265.307 346.760,264.800 347.200 C 264.293 347.640,263.649 348.000,263.369 348.000 C 263.090 348.000,262.353 348.427,261.731 348.948 C 261.109 349.470,260.003 350.027,259.273 350.186 C 258.543 350.345,257.851 350.722,257.736 351.022 C 257.621 351.323,257.138 351.680,256.663 351.816 C 256.188 351.952,254.630 352.613,253.200 353.285 C 250.423 354.591,249.991 354.810,247.200 356.335 C 246.210 356.875,244.950 357.560,244.400 357.856 C 243.850 358.153,243.120 358.396,242.778 358.398 C 242.435 358.399,241.576 358.828,240.867 359.351 C 240.158 359.873,238.846 360.418,237.950 360.562 C 237.054 360.705,236.056 361.087,235.732 361.411 C 235.408 361.735,234.818 362.000,234.420 362.000 C 233.516 362.000,230.933 363.061,230.625 363.559 C 230.499 363.763,229.682 364.051,228.810 364.198 C 227.937 364.346,226.785 364.811,226.249 365.233 C 225.713 365.655,224.834 366.000,224.297 366.000 C 222.900 366.000,220.702 366.821,220.000 367.605 C 219.630 368.018,218.490 368.367,217.028 368.516 C 215.495 368.672,214.533 368.977,214.308 369.379 C 214.117 369.720,213.618 370.000,213.200 370.000 C 211.141 370.000,208.294 370.918,208.104 371.644 C 207.896 372.441,207.676 372.497,204.800 372.491 C 203.810 372.489,202.481 372.755,201.847 373.081 C 201.213 373.408,200.583 373.523,200.447 373.338 C 200.311 373.152,199.750 372.965,199.200 372.922 C 193.147 372.449,192.179 372.255,191.319 371.338 C 190.653 370.629,190.008 370.400,188.673 370.400 C 187.501 370.400,186.559 370.125,185.869 369.583 C 185.291 369.128,183.919 368.658,182.774 368.522 C 181.644 368.388,180.422 367.973,180.059 367.599 C 179.288 366.804,177.099 366.000,175.703 366.000 C 175.166 366.000,174.269 365.640,173.709 365.200 C 173.150 364.760,172.383 364.400,172.006 364.400 C 171.628 364.400,170.478 363.953,169.450 363.406 C 168.422 362.859,167.167 362.337,166.663 362.246 C 166.158 362.154,165.040 361.701,164.178 361.240 C 163.317 360.778,162.095 360.400,161.464 360.400 C 160.823 360.400,159.791 359.958,159.127 359.400 C 158.473 358.850,157.674 358.400,157.351 358.400 C 157.028 358.400,155.918 357.950,154.885 357.400 C 153.852 356.850,152.724 356.400,152.379 356.400 C 152.033 356.400,151.402 356.085,150.975 355.699 C 149.862 354.693,145.622 352.556,144.054 352.212 C 143.319 352.050,142.381 351.581,141.969 351.169 C 141.557 350.757,140.721 350.304,140.110 350.162 C 139.500 350.020,138.815 349.676,138.589 349.397 C 138.190 348.905,136.770 348.098,133.343 346.414 C 132.431 345.967,131.582 345.330,131.455 345.000 C 131.324 344.659,130.728 344.400,130.072 344.400 C 129.336 344.400,128.464 343.965,127.663 343.200 C 126.972 342.540,126.215 342.000,125.981 342.000 C 125.747 342.000,124.440 341.183,123.077 340.184 C 121.715 339.185,119.520 337.656,118.200 336.787 C 116.880 335.918,114.630 334.389,113.200 333.389 C 111.770 332.389,110.010 331.197,109.290 330.740 C 108.569 330.283,107.798 329.569,107.576 329.154 C 107.354 328.739,106.988 328.400,106.762 328.400 C 106.201 328.400,99.669 322.551,93.420 316.454 C 87.288 310.470,84.962 307.887,82.634 304.475 C 81.992 303.535,81.251 302.638,80.986 302.483 C 80.721 302.327,80.076 301.420,79.552 300.466 C 77.592 296.894,77.327 296.469,76.616 295.759 C 76.216 295.359,75.641 294.440,75.339 293.716 C 75.037 292.992,74.612 292.400,74.395 292.400 C 74.178 292.400,74.000 292.068,74.000 291.662 C 74.000 291.256,73.647 290.605,73.217 290.215 C 72.786 289.825,72.146 288.641,71.795 287.584 C 71.443 286.527,70.910 285.457,70.609 285.208 C 70.309 284.958,69.940 284.026,69.789 283.137 C 69.639 282.248,69.175 281.228,68.758 280.871 C 68.316 280.493,68.000 279.704,68.000 278.979 C 68.000 278.295,67.572 276.891,67.050 275.858 C 66.527 274.826,65.979 273.229,65.832 272.309 C 65.685 271.389,65.178 270.012,64.706 269.247 C 64.036 268.164,63.785 266.917,63.565 263.590 C 63.405 261.165,63.028 258.820,62.692 258.161 C 62.367 257.522,62.068 255.920,62.027 254.600 C 61.986 253.280,61.908 251.390,61.854 250.400 C 61.800 249.410,61.931 248.366,62.144 248.080 C 62.410 247.723,62.323 247.352,61.866 246.894 C 61.245 246.273,61.200 246.276,61.200 246.938 C 61.200 247.328,61.049 247.554,60.864 247.439 C 60.317 247.102,58.705 249.594,58.925 250.435 C 59.046 250.897,58.962 251.100,58.715 250.947 C 57.992 250.501,58.511 261.212,59.269 262.400 C 59.639 262.980,59.996 264.680,60.119 266.448 C 60.247 268.291,60.638 270.109,61.109 271.048 C 61.538 271.901,61.985 273.353,62.103 274.273 C 62.220 275.194,62.763 276.904,63.308 278.073 C 63.853 279.243,64.516 280.875,64.781 281.700 C 65.045 282.525,65.394 283.200,65.555 283.200 C 65.717 283.200,66.076 284.086,66.353 285.168 C 66.631 286.251,67.092 287.226,67.377 287.336 C 67.663 287.446,68.022 288.045,68.174 288.668 C 68.326 289.290,68.848 290.430,69.334 291.200 C 69.821 291.970,70.484 293.064,70.809 293.631 C 72.302 296.235,73.052 297.219,73.706 297.430 C 74.094 297.555,74.312 297.819,74.189 298.017 C 73.939 298.422,74.891 300.420,75.920 301.651 C 77.595 303.655,78.335 304.332,78.579 304.088 C 78.724 303.943,78.712 304.163,78.553 304.578 C 78.353 305.099,78.407 305.243,78.727 305.045 C 79.011 304.870,79.114 304.961,78.993 305.279 C 78.885 305.566,79.247 306.323,79.798 306.962 C 80.349 307.601,80.802 308.231,80.803 308.362 C 80.805 308.493,81.406 309.231,82.137 310.003 C 82.869 310.775,83.931 312.140,84.497 313.037 C 86.806 316.694,97.231 326.992,99.100 327.461 C 99.606 327.588,100.210 328.045,100.441 328.477 C 100.711 328.982,101.096 329.172,101.518 329.010 C 101.880 328.871,102.062 328.871,101.923 329.011 C 101.563 329.370,105.127 332.703,106.819 333.590 C 107.600 333.999,108.950 334.973,109.819 335.753 C 112.333 338.011,114.470 339.600,114.992 339.600 C 115.257 339.600,115.907 339.969,116.437 340.419 C 118.624 342.278,120.543 343.600,121.055 343.600 C 121.355 343.600,121.916 343.915,122.302 344.300 C 123.359 345.354,126.866 347.600,127.453 347.600 C 127.737 347.600,128.291 347.929,128.684 348.331 C 129.078 348.732,130.030 349.302,130.800 349.596 C 131.570 349.891,132.477 350.365,132.815 350.651 C 133.153 350.936,134.053 351.459,134.815 351.813 C 135.577 352.167,136.830 352.800,137.600 353.220 C 138.370 353.639,139.303 353.916,139.674 353.835 C 140.045 353.754,140.448 353.948,140.569 354.265 C 140.691 354.582,141.595 355.197,142.579 355.632 C 143.562 356.067,144.455 356.566,144.563 356.741 C 144.671 356.916,145.534 357.305,146.480 357.607 C 147.426 357.909,148.623 358.476,149.141 358.867 C 149.658 359.259,150.693 359.694,151.441 359.834 C 152.188 359.974,152.800 360.227,152.800 360.396 C 152.800 360.565,153.385 360.923,154.100 361.191 C 154.815 361.459,156.317 362.118,157.438 362.656 C 158.558 363.193,159.998 363.670,160.638 363.716 C 161.277 363.762,162.070 364.088,162.400 364.439 C 162.730 364.791,163.720 365.305,164.600 365.582 C 165.480 365.859,167.133 366.532,168.274 367.077 C 169.415 367.623,170.675 368.003,171.074 367.923 C 171.473 367.843,172.154 368.101,172.586 368.498 C 173.805 369.617,176.238 370.232,176.987 369.611 C 177.487 369.196,177.600 369.204,177.600 369.653 C 177.600 370.909,182.565 372.475,183.520 371.520 C 183.893 371.147,184.000 371.201,184.000 371.763 C 184.000 372.238,184.204 372.407,184.595 372.257 C 184.923 372.131,185.148 372.231,185.095 372.479 C 184.930 373.260,187.956 374.220,188.842 373.667 C 189.449 373.288,189.600 373.303,189.600 373.746 C 189.600 374.816,194.611 375.997,199.000 375.962 C 203.441 375.927,205.997 375.671,205.942 375.267 C 205.843 374.544,206.047 374.255,206.335 374.709 C 206.708 375.297,209.600 374.306,209.600 373.591 C 209.600 373.349,209.887 373.372,210.333 373.651 C 211.232 374.212,215.200 373.043,215.200 372.217 C 215.200 371.931,215.480 371.465,215.823 371.181 C 216.336 370.755,216.424 370.762,216.323 371.223 C 216.255 371.530,216.560 371.837,217.000 371.905 C 218.042 372.066,221.023 371.000,220.920 370.503 C 220.876 370.291,221.281 370.203,221.820 370.306 C 222.359 370.409,222.801 370.337,222.801 370.147 C 222.802 369.956,223.477 369.792,224.301 369.782 C 225.126 369.772,226.430 369.441,227.200 369.046 C 227.970 368.651,229.500 368.056,230.600 367.725 C 231.700 367.393,232.870 366.897,233.200 366.622 C 233.530 366.347,234.660 365.890,235.710 365.606 C 236.761 365.322,237.709 364.947,237.818 364.771 C 237.926 364.596,239.046 364.155,240.307 363.790 C 241.568 363.426,242.870 362.905,243.200 362.633 C 243.530 362.361,244.544 361.926,245.453 361.667 C 246.361 361.408,247.328 360.927,247.602 360.598 C 247.875 360.269,248.388 360.000,248.743 360.000 C 249.098 360.000,250.291 359.567,251.394 359.037 C 257.700 356.010,261.180 354.259,262.600 353.398 C 263.480 352.865,264.824 352.133,265.586 351.773 C 266.349 351.412,267.159 350.887,267.386 350.607 C 267.614 350.326,268.281 349.984,268.869 349.848 C 269.457 349.712,270.473 349.150,271.127 348.600 C 271.781 348.050,272.491 347.600,272.705 347.600 C 272.919 347.600,274.316 346.781,275.809 345.780 C 277.302 344.778,279.104 343.717,279.813 343.420 C 280.522 343.124,281.227 342.681,281.379 342.435 C 281.530 342.189,282.227 341.723,282.927 341.400 C 283.627 341.076,285.010 340.180,286.000 339.407 C 286.990 338.635,288.230 337.817,288.756 337.590 C 289.281 337.363,290.271 336.736,290.956 336.196 C 292.931 334.638,294.354 333.463,295.309 332.600 C 295.796 332.160,297.121 331.170,298.253 330.400 C 300.249 329.042,304.015 325.935,304.943 324.881 C 305.194 324.595,305.625 324.145,305.901 323.881 C 312.060 317.965,319.198 310.274,319.200 309.551 C 319.200 309.414,320.145 308.121,321.300 306.678 C 323.539 303.880,326.090 300.091,327.400 297.618 C 327.840 296.787,328.402 295.858,328.649 295.553 C 328.897 295.249,329.757 293.770,330.562 292.267 C 331.366 290.764,332.269 289.144,332.568 288.667 C 332.866 288.190,333.335 287.095,333.609 286.233 C 333.883 285.370,334.425 284.110,334.815 283.433 C 335.204 282.755,335.652 281.580,335.810 280.823 C 335.968 280.065,336.333 279.210,336.620 278.923 C 336.907 278.635,337.362 277.365,337.629 276.100 C 337.897 274.835,338.335 273.438,338.604 272.996 C 339.222 271.980,340.000 268.394,340.000 266.566 C 340.000 265.799,340.256 264.773,340.569 264.286 C 341.248 263.230,341.994 259.376,342.014 256.827 C 342.022 255.822,342.286 254.550,342.600 254.000 C 343.267 252.833,343.473 236.440,342.829 235.780 C 342.625 235.571,342.114 234.410,341.693 233.200 C 341.141 231.615,340.734 231.017,340.237 231.060 C 339.857 231.093,339.641 231.026,339.756 230.910 C 340.494 230.173,335.375 228.006,332.886 228.002 C 332.163 228.001,331.173 227.744,330.686 227.431 C 329.600 226.733,325.727 226.000,323.127 226.000 C 322.067 226.000,321.200 225.827,321.200 225.615 C 321.200 225.021,318.577 224.461,314.400 224.162 C 312.310 224.013,310.091 223.634,309.469 223.319 C 308.847 223.005,306.597 222.521,304.469 222.244 C 302.341 221.967,300.177 221.513,299.659 221.235 C 299.142 220.956,296.802 220.490,294.459 220.199 C 292.117 219.907,289.462 219.394,288.559 219.057 C 287.657 218.720,285.047 218.320,282.759 218.168 C 280.472 218.016,278.136 217.658,277.569 217.372 C 277.003 217.085,274.213 216.633,271.369 216.365 C 268.526 216.098,265.700 215.629,265.089 215.324 C 264.478 215.018,262.408 214.571,260.489 214.329 C 258.570 214.087,256.499 213.637,255.886 213.327 C 255.273 213.018,252.573 212.536,249.886 212.257 C 247.199 211.977,244.635 211.550,244.189 211.308 C 243.743 211.066,241.493 210.657,239.189 210.401 C 236.885 210.144,234.370 209.679,233.600 209.368 C 232.023 208.731,226.211 208.008,222.626 208.003 C 221.052 208.001,219.679 207.722,218.549 207.176 C 217.362 206.601,215.719 206.287,213.123 206.139 C 211.075 206.023,208.410 205.600,207.200 205.200 C 205.990 204.800,203.290 204.344,201.200 204.185 C 199.110 204.027,196.943 203.665,196.383 203.381 C 195.248 202.805,190.044 202.000,187.457 202.000 C 186.530 202.000,184.789 201.657,183.586 201.237 C 182.384 200.818,180.140 200.351,178.600 200.200 C 177.060 200.049,175.080 199.591,174.200 199.183 C 173.320 198.774,171.160 198.316,169.400 198.166 C 167.640 198.015,165.712 197.645,165.115 197.343 C 164.519 197.042,162.179 196.600,159.915 196.361 C 157.652 196.122,155.348 195.688,154.796 195.397 C 154.243 195.106,151.903 194.663,149.596 194.412 C 147.288 194.161,144.761 193.685,143.979 193.353 C 143.198 193.021,139.868 192.510,136.579 192.217 C 133.291 191.923,129.880 191.414,129.000 191.086 C 128.120 190.757,126.230 190.357,124.800 190.197 C 123.370 190.037,121.710 189.655,121.110 189.348 C 120.511 189.041,118.081 188.601,115.710 188.370 C 113.340 188.139,110.770 187.701,110.000 187.398 C 109.230 187.095,106.837 186.654,104.683 186.418 C 101.697 186.091,100.389 185.751,99.183 184.989 L 97.600 183.990 97.500 170.895 C 97.391 156.644,97.472 151.995,97.833 151.634 C 97.962 151.505,116.496 151.400,139.020 151.400 L 179.972 151.400 180.086 171.635 L 180.200 191.869 181.304 193.461 C 183.009 195.922,189.302 198.000,195.047 198.000 C 196.136 198.000,198.035 198.354,199.266 198.787 C 200.497 199.219,203.011 199.694,204.852 199.842 C 206.693 199.989,208.740 200.389,209.400 200.730 C 211.869 202.005,215.971 201.603,217.700 199.917 C 220.047 197.627,220.000 198.161,220.000 173.974 L 220.000 151.600 260.973 151.600 C 299.652 151.600,301.957 151.639,302.146 152.300 C 302.355 153.034,302.554 162.000,302.457 166.317 C 302.401 168.803,302.374 168.861,300.276 170.917 C 297.331 173.804,296.154 174.800,295.686 174.800 C 295.466 174.800,295.187 175.057,295.067 175.371 C 294.946 175.685,294.067 176.287,293.113 176.709 C 290.293 177.956,282.986 185.476,282.669 187.456 C 281.849 192.586,285.670 195.964,292.320 195.990 C 293.706 195.996,295.326 196.249,295.920 196.552 C 297.056 197.133,302.650 198.000,305.264 198.000 C 306.109 198.000,306.800 198.173,306.800 198.385 C 306.800 199.152,310.313 199.704,315.497 199.752 C 318.410 199.778,320.795 199.906,320.797 200.036 C 320.800 200.275,322.805 200.939,325.000 201.428 C 327.667 202.022,338.045 201.895,337.806 201.271 C 337.613 200.769,337.676 200.765,338.256 201.243 C 338.755 201.656,338.972 201.676,339.091 201.322 C 339.179 201.060,339.481 200.933,339.762 201.041 C 340.636 201.376,341.258 200.156,342.534 195.600 C 343.064 193.707,343.168 188.257,343.275 156.600 L 343.400 119.800 342.221 117.316 C 341.057 114.862,339.460 113.545,338.424 114.185 C 338.191 114.329,338.000 114.285,338.000 114.088 C 338.000 112.438,336.240 112.392,269.300 112.310 L 220.000 112.250 220.000 106.795 C 220.000 100.723,220.139 100.386,223.137 99.201 C 224.621 98.614,233.200 90.262,233.200 89.404 C 233.200 89.106,233.638 88.341,234.174 87.704 C 234.710 87.067,235.449 85.794,235.817 84.873 C 236.186 83.953,236.611 83.200,236.763 83.200 C 236.915 83.200,237.278 82.525,237.569 81.700 C 237.860 80.875,238.336 79.928,238.625 79.595 C 238.915 79.262,239.364 78.092,239.622 76.995 C 239.881 75.898,240.344 74.404,240.651 73.676 C 242.347 69.658,242.339 56.439,240.639 53.800 C 240.356 53.360,240.027 52.262,239.908 51.359 C 239.626 49.214,235.709 41.313,234.114 39.671 C 233.831 39.381,233.600 38.982,233.600 38.785 C 233.600 38.362,231.556 36.023,229.642 34.254 C 228.895 33.564,227.376 32.124,226.268 31.054 C 225.160 29.984,223.496 28.784,222.570 28.387 C 221.645 27.991,220.776 27.485,220.639 27.264 C 220.503 27.043,219.861 26.745,219.214 26.603 C 218.567 26.461,217.585 25.989,217.033 25.554 C 216.480 25.119,214.986 24.552,213.714 24.293 C 212.441 24.034,211.297 23.679,211.172 23.504 C 210.351 22.358,197.131 21.596,192.457 22.426 M194.000 48.462 C 193.230 48.685,192.316 49.123,191.969 49.434 C 191.621 49.745,191.146 50.000,190.912 50.000 C 190.216 50.000,186.465 53.564,186.165 54.510 C 186.012 54.991,185.508 55.898,185.044 56.525 C 183.875 58.106,183.769 68.562,184.900 70.761 C 185.285 71.510,185.600 72.334,185.600 72.592 C 185.600 73.512,190.062 77.468,192.525 78.731 C 194.952 79.976,195.199 80.018,200.477 80.090 L 205.925 80.163 208.198 78.654 C 214.477 74.485,215.940 71.754,216.070 63.965 L 216.167 58.131 214.797 55.965 C 213.016 53.149,209.834 50.023,207.646 48.940 C 205.691 47.972,196.764 47.660,194.000 48.462 M204.139 52.946 C 206.038 53.866,208.800 56.503,208.800 57.397 C 208.800 57.646,209.143 58.218,209.563 58.668 C 211.867 61.141,212.438 63.771,211.200 66.200 C 210.760 67.063,210.400 68.001,210.400 68.285 C 210.400 68.568,210.253 68.800,210.074 68.800 C 209.894 68.800,209.355 69.498,208.876 70.351 C 207.199 73.333,202.737 76.000,199.423 76.000 C 198.200 76.000,197.200 75.834,197.200 75.631 C 197.200 75.428,196.525 75.047,195.700 74.785 C 194.875 74.522,193.798 73.923,193.306 73.454 C 192.814 72.984,191.861 72.060,191.189 71.400 C 182.522 62.895,193.215 47.656,204.139 52.946 M200.305 375.075 C 199.922 375.175,199.202 375.179,198.705 375.083 C 198.207 374.987,198.520 374.905,199.400 374.901 C 200.280 374.896,200.687 374.975,200.305 375.075 " stroke="none" fill="#847761" fill-rule="evenodd"></path></g></svg>